PathFileType	4	(X/Y/Z)	Patient4_TMGait_0pt5_01_right_29.trc.trc
DataRate	CameraRate	NumFrames	NumMarkers	Units	OrigDataRate	OrigDataStartFrame	OrigNumFrames
72.916666666667	72.916666666667	5	33	mm	72.916666666667	18	       141
Frame#	Time	L.ASIS			Sacral			L.Shoulder			Chest			R.Shoulder			Neck			R.ASIS			R.Thigh.Superior			R.Thigh.Lateral			R.Thigh.Inferior			R.Patella			L.Thigh.Superior			L.Thigh.Lateral			L.Thigh.Inferior			L.Patella			L.Shank.Superior			L.Shank.Lateral			L.Shank.Inferior			R.Shank.Superior			R.Shank.Lateral			R.Shank.Inferior			R.Heel			R.Midfoot.Superior			R.Midfoot.Lateral			R.Toe			L.Heel			L.Midfoot.Lateral			L.Midfoot.Superior			L.Toe			L.Elbow			L.Wrist			R.Elbow			R.Wrist			
		X1	Y1	Z1	X2	Y2	Z2	X3	Y3	Z3	X4	Y4	Z4	X5	Y5	Z5	X6	Y6	Z6	X7	Y7	Z7	X8	Y8	Z8	X9	Y9	Z9	X10	Y10	Z10	X11	Y11	Z11	X12	Y12	Z12	X13	Y13	Z13	X14	Y14	Z14	X15	Y15	Z15	X16	Y16	Z16	X17	Y17	Z17	X18	Y18	Z18	X19	Y19	Z19	X20	Y20	Z20	X21	Y21	Z21	X22	Y22	Z22	X23	Y23	Z23	X24	Y24	Z24	X25	Y25	Z25	X26	Y26	Z26	X27	Y27	Z27	X28	Y28	Z28	X29	Y29	Z29	X30	Y30	Z30	X31	Y31	Z31	X32	Y32	Z32	X33	Y33	Z33	

18	38.283142857143	886.244533852206	959.442044126061	292.522236476487	671.287733667445	1004.727798067304	448.360824435381	865.167657724334	1437.899440255332	281.207975945405	958.936693689252	1358.758869208009	443.746724017280	867.461074916701	1430.740428601629	616.989763831881	862.366305715487	1492.696990816706	432.614877543885	895.066380093221	939.708986486507	567.288081612553	975.520349893067	775.716918422790	535.989386399784	939.039755368191	653.722914449178	610.793444484246	1025.636212460684	618.570334081273	527.616185861490	1062.796049878967	530.110095586791	546.335419580920	900.461951377238	732.529175547290	327.109391901411	793.483662558997	632.726077039280	262.734533765275	853.928937569495	542.919158514428	332.558601757572	840.060711988328	474.587536818428	344.019782888175	808.343548192359	406.656681692771	333.636606282376	709.846075446228	302.943605557532	279.032262814865	739.752028958200	188.254690928032	354.186115668853	1035.967501373373	439.522736890561	556.155192092795	971.183100420977	333.064713034677	620.654623890867	1027.023905116511	239.501861228528	567.445785493455	910.662955456272	63.671394627568	540.027754399294	1078.291323464729	122.445262111754	579.364564085890	994.103349945971	54.129544297803	613.633139454546	1199.398830935897	75.710516430415	608.014113065539	594.736282251124	39.674122720226	387.992635715813	671.207796166815	35.921959446993	310.484828600116	754.623902265328	95.656511265429	340.188963013799	882.999002804208	39.897743438267	315.082372605305	790.111294195558	1110.368806588597	126.881374552379	951.015354267936	903.843801659794	136.818737239964	759.697207885375	1103.274146967048	730.584370344645	779.331452745600	847.865581309784	777.107863434447	
19	38.296857142857	887.761751161354	958.330197726446	294.215400634805	672.335336153833	1003.132633419118	449.632841196692	865.174147407065	1436.760872604186	283.359016262965	958.916166539953	1357.748606768727	445.995587203502	866.997289841272	1429.307634922226	619.273335028794	862.068666660647	1491.472234503921	434.835391130982	895.824216453130	938.302218245815	569.136634738287	973.742528435983	771.169135562296	538.934553006590	934.536529818222	649.990313138358	613.336070912117	1020.711614344628	613.805275473771	530.118587661063	1057.163706637388	527.387196912324	548.098424263712	899.593483927499	730.712507439152	328.561478323786	791.573958847627	632.094202703314	263.694193956153	850.702853654030	541.608549282807	333.483915054542	836.054744257709	473.356213256099	344.800868767548	803.889972916542	405.718948380715	334.278623633175	704.582919921231	302.829495954798	279.589488828065	733.581711652449	187.786427733010	354.475884367202	1033.610870470611	436.861570165780	558.250907483539	973.059474772653	327.580038677461	622.687450946876	1032.879042554448	236.318589085226	569.190336934072	923.748099678115	55.627494778789	541.302204583046	1089.151070437157	121.216961720568	581.196987475470	1007.491948996284	49.349844429905	615.082526633609	1212.224801775763	79.094285456082	610.008552087696	587.835689006750	39.600940472778	388.076015984613	664.307407759052	35.921826949757	310.572547695117	747.722155512962	95.598004124249	340.296530825477	876.085226658138	39.822150051905	315.059790049764	791.454420377959	1108.758064368242	129.317242454371	953.160636531309	902.979672483065	141.018503032321	760.379237414762	1100.621891545105	730.859187966722	782.011880955684	844.968682536114	775.574483586613	
20	38.310571428571	889.441024718924	957.096840338314	296.095634997453	673.596861754892	1001.361660179845	451.150227075902	864.954628397713	1435.523821165365	285.737537721557	958.900063141207	1356.717145621452	448.380743462256	866.628378631188	1427.745201430586	621.784109021122	861.663490588351	1490.142839606931	437.294612606049	896.876803788866	936.724126487988	571.092065105606	972.513402968639	766.635656103061	541.998420026093	930.574088862491	646.202830659090	615.760585572126	1016.526310633818	609.186551627781	532.617799518292	1051.927701621951	524.293134318476	549.809123563169	898.994000717849	728.848437099154	330.080294307652	789.861581263171	631.419674374742	264.802162332168	847.746797415125	540.237884966170	334.468054555023	832.346681608634	472.011596356095	345.638126008688	799.646558379500	404.706048756327	334.983535746115	699.426847669454	302.734884448410	280.185207104207	727.449000510944	187.291455516778	354.761224339664	1030.966447104129	433.863853432384	560.215380350964	973.499762587393	322.545002260571	624.260081730302	1036.425262339616	233.206427359969	570.624238886089	932.882388949729	49.512844057982	541.943697196408	1096.417367987568	119.727426697790	582.728704999639	1016.508897561237	45.539544274548	616.062444034447	1220.595741709020	80.791798952148	611.850977632579	580.910348502368	39.494882311177	388.124961578582	657.409001970581	35.883058124157	310.640216328476	740.822761298014	95.527996790025	340.375528745275	869.204189371212	39.752068338281	315.011253510421	792.458953770116	1106.963854907976	132.174093128479	955.031150569443	901.959791376086	145.252013348219	761.800699146657	1097.628662054420	731.360330842864	786.006638348936	841.740007105595	774.004279483423	
21	38.324285714286	891.248225600858	955.772063361042	298.187111125585	675.028747425557	999.467348794754	452.904869071634	864.570738150691	1434.211976154238	288.341429517589	958.905219781988	1355.685275814292	450.924117803416	866.350095499951	1426.096494652499	624.524996044935	861.181337480779	1488.742805950652	439.988818831199	898.183967718867	935.029434487222	573.181260271470	971.956430255178	762.350602942589	545.123194346084	927.345469417570	642.509254705845	617.969613556461	1013.323038074648	604.927712290343	535.063834667023	1047.365000863065	520.991935947761	551.415542426740	898.686054400291	726.976503145771	331.676521791321	788.388261540285	630.706256692945	266.082655393427	845.151602334369	538.816913920342	335.531812238801	829.055160131735	470.536083065932	346.541216277309	795.693119971412	403.609310022210	335.768883297195	694.432979798555	302.680691399120	280.826385731026	721.387692442667	186.780239649511	355.041141583334	1028.292809247399	430.643514950758	561.969619541724	972.747488514662	318.000574994497	625.369214052853	1037.862265835298	230.120360251264	571.700631337501	938.071743070800	45.149639707581	542.013272515694	1100.272136968242	117.863022120910	583.897769555917	1021.277045731228	42.557261777681	616.608710185233	1224.826150867026	80.672532342684	613.465386542040	573.959892107627	39.398672577394	388.121352854817	650.516666092720	35.816817900756	310.676975979811	733.945517680483	95.445651259260	340.415282498138	862.365066923227	39.682556986032	314.934616985488	793.133941678441	1105.027820784348	135.433104207900	956.599330996850	900.788311234507	149.482811521360	763.916850234786	1094.375302585456	732.121954182968	791.266449118451	838.290954905128	772.457277992849	
22	38.338000000000	893.138101175101	954.407621455132	300.499506248058	676.578936151581	997.516014688869	454.885862860892	864.090825892070	1432.862298592652	291.167874928556	958.950310098301	1354.678757736491	453.645472792762	866.166433775627	1424.415562963446	627.495931591169	860.664101861520	1487.318435662761	442.912868126763	899.701784761259	933.288907711877	575.426094606178	972.149137182251	758.514381562513	548.238608895527	924.986724230580	639.049822777124	619.892122244805	1011.256295551790	601.194998363177	537.408720614522	1043.690743711715	517.655069994880	552.864806403839	898.695223735249	725.150334290338	333.349233613966	787.219577933098	629.955691524663	267.556991869302	843.048651208240	537.361240408249	336.691519559341	826.345490342282	468.912358949383	347.511925562192	792.145484645618	402.419455932062	336.649936688950	689.687738812376	302.697801497938	281.521542450101	715.453750360663	186.273676495591	355.314724193293	1025.831071653019	427.337152652403	563.451756294617	971.135749737204	313.989769443174	626.066746331984	1037.516068447899	227.061472186871	572.406407160773	939.597975696660	42.299482199221	541.637269518750	1101.090690790867	115.606015342226	584.670144231972	1022.204598290905	40.275385962692	616.800214778087	1225.451250405148	78.832203856961	614.778982403975	566.991452829252	39.392926886619	388.049159085536	643.637535190559	35.756213242948	310.672921263426	727.122630044373	95.355477085461	340.404869541036	855.573383346675	39.603919680450	314.831361948923	793.510620925906	1103.003494280896	139.069850083560	957.838136137951	899.466851355290	153.680895932985	766.675958902479	1090.955537632877	733.168994086398	797.725569628681	834.748712509590	770.986029838103	
